<svg width="671" height="158" viewBox="0 0 671 158" fill="none" xmlns="http://www.w3.org/2000/svg">
<path d="M49.9419 132.052C48.3876 132.856 47.0729 133.126 45.9977 132.861C44.9225 132.597 44.0163 131.752 43.2791 130.327L25.0407 95.0787C24.4774 95.4405 23.7947 95.9345 22.9927 96.5606C22.1996 97.1586 21.3986 97.8545 20.5896 98.6484C19.7806 99.4423 19.0052 100.301 18.2632 101.224C17.5117 102.129 16.9002 103.056 16.4288 104.003C15.9478 104.932 15.6439 105.864 15.517 106.797C15.3902 107.731 15.5422 108.614 15.973 109.446C16.2794 110.039 16.5975 110.472 16.9274 110.747C17.2759 111.012 17.5997 111.185 17.899 111.265C18.1887 111.326 18.4497 111.332 18.6819 111.282C18.9231 111.204 19.09 111.141 19.1825 111.093C19.6451 110.854 19.9861 110.584 20.2055 110.282C20.4154 109.963 20.5976 109.657 20.7519 109.366C20.8967 109.057 21.0326 108.775 21.1596 108.522C21.2954 108.241 21.5021 108.028 21.7797 107.885C22.0017 107.77 22.2617 107.706 22.5597 107.692C22.8666 107.651 23.1793 107.688 23.4977 107.805C23.8347 107.912 24.1729 108.112 24.5124 108.406C24.8423 108.681 25.1413 109.077 25.4094 109.595C25.7923 110.336 25.9746 111.05 25.9562 111.74C25.9563 112.42 25.8208 113.065 25.5497 113.675C25.2875 114.256 24.9083 114.792 24.4119 115.284C23.9245 115.747 23.3939 116.127 22.8203 116.424C21.9322 116.884 21.0507 117.152 20.1759 117.229C19.31 117.279 18.4885 117.164 17.7112 116.886C16.934 116.608 16.2292 116.175 15.5968 115.587C14.9643 115 14.4375 114.299 14.0162 113.485C12.8961 111.32 12.5212 109.145 12.8916 106.959C13.271 104.746 14.2288 102.585 15.765 100.476C17.2916 98.3493 19.3042 96.3228 21.8027 94.3967C24.3011 92.4706 27.1232 90.6937 30.2687 89.0662C31.7675 88.2907 33.2388 87.5529 34.6827 86.8527C36.117 86.134 37.4314 85.5008 38.6258 84.9532C39.8387 84.3959 40.8899 83.9341 41.7793 83.5677C42.6688 83.2014 43.3317 82.9639 43.7681 82.8554C44.1861 82.7564 44.5539 82.742 44.8717 82.8121C45.1799 82.8638 45.447 82.9719 45.6729 83.1365C45.8988 83.3011 46.0973 83.5033 46.2683 83.7432C46.4298 83.9646 46.5775 84.2048 46.7116 84.4639C46.8169 84.6674 46.9136 84.9223 47.0017 85.2286C47.0802 85.5164 47.1262 85.8092 47.1396 86.1072C47.1531 86.4052 47.1196 86.6805 47.0392 86.9332C46.9589 87.1859 46.7984 87.3745 46.5579 87.499C46.4099 87.5756 46.2191 87.5922 45.9855 87.5488C45.7705 87.4959 45.4763 87.4487 45.103 87.4073C44.7297 87.3659 44.2403 87.3493 43.6348 87.3577C43.0477 87.3565 42.313 87.4552 41.4306 87.6538C40.5666 87.8428 39.5272 88.146 38.3124 88.5635C37.116 88.9714 35.7078 89.5593 34.0878 90.3271L52.3549 125.631C53.0921 127.056 53.2582 128.284 52.8531 129.314C52.4481 130.345 51.4777 131.257 49.9419 132.052Z" fill="#FFD66C"/>
<path d="M68.6416 93.2564C68.9054 91.9359 69.3105 90.6786 69.857 89.4845C70.0694 88.9823 70.3241 88.473 70.6212 87.9565C70.9374 87.4317 71.2894 86.9366 71.6771 86.4714C72.0756 85.9788 72.5182 85.5351 73.005 85.1403C73.5108 84.7371 74.0596 84.4062 74.6513 84.1474C75.9301 83.588 77.1839 83.3353 78.4126 83.3891C79.6413 83.4429 80.8539 83.9017 82.0503 84.7655C83.2467 85.6293 84.4478 86.9458 85.6536 88.715C86.8511 90.4651 88.0718 92.7622 89.3157 95.6063C90.5262 98.374 91.33 100.888 91.727 103.147C92.124 105.406 92.2347 107.427 92.0592 109.209C91.8836 110.992 91.4862 112.552 90.867 113.892C90.256 115.251 89.5479 116.413 88.7426 117.379C87.9373 118.345 87.0992 119.133 86.2283 119.741C85.3657 120.368 84.5951 120.842 83.9163 121.161L83.1165 120.113C83.8836 119.527 84.476 118.802 84.8936 117.937C85.3112 117.072 85.4652 115.891 85.3556 114.392C85.2377 112.875 84.8091 110.959 84.0697 108.645C83.3494 106.322 82.2254 103.414 80.6977 99.9213C79.6458 97.5163 78.6922 95.6481 77.8371 94.3167C76.9926 92.9579 76.2263 91.9856 75.538 91.3998C74.8605 90.7865 74.2426 90.4656 73.6844 90.4369C73.1368 90.3808 72.634 90.4529 72.1759 90.6532C71.6224 90.8953 71.2024 91.2609 70.9161 91.75C70.6214 92.22 70.3952 92.7168 70.2377 93.2405C70.0993 93.7558 69.999 94.2544 69.937 94.7363C69.894 95.2099 69.8379 95.5756 69.7686 95.8332L78.1337 114.959C78.2422 115.207 78.3376 115.529 78.4199 115.925C78.4938 116.302 78.449 116.72 78.2855 117.178C78.1328 117.608 77.8065 118.058 77.3066 118.527C76.8342 119.006 76.0921 119.467 75.0805 119.91C74.0689 120.352 73.2129 120.579 72.5127 120.589C71.8208 120.619 71.2512 120.539 70.8039 120.348C70.3756 120.148 70.0482 119.894 69.8216 119.584C69.5949 119.273 69.4357 119.013 69.3439 118.803L53.1898 81.869C52.9477 81.3155 52.6054 80.8967 52.1629 80.6127C51.7311 80.3013 51.2098 80.2792 50.599 80.5464C50.2745 80.6883 50.0132 80.8708 49.8152 81.0938C49.6278 81.2895 49.4465 81.5507 49.2711 81.8775L48.3979 81.4408C48.6783 80.8861 49.0106 80.3201 49.3948 79.7428C49.7706 79.1464 50.2151 78.5768 50.7281 78.0341C51.2602 77.483 51.8513 76.963 52.5015 76.474C53.1517 75.9849 53.8776 75.5651 54.6793 75.2145C55.92 74.6718 56.959 74.422 57.7965 74.4651C58.6255 74.489 59.3108 74.6782 59.8524 75.0325C60.3856 75.3678 60.8019 75.7997 61.1012 76.3282C61.4113 76.8292 61.6582 77.2897 61.8419 77.7096L68.6416 93.2564Z" fill="#FFD66C"/>
<path d="M109.458 89.6968C109.688 90.3223 110.029 90.974 110.479 91.6518C110.941 92.3029 111.485 92.9349 112.111 93.5479C112.737 94.1608 113.43 94.7156 114.19 95.2123C114.963 95.6822 115.779 96.0584 116.638 96.341C117.517 96.6164 118.425 96.759 119.361 96.7689C120.297 96.7788 121.254 96.6035 122.231 96.243C122.916 95.9906 123.522 95.6781 124.051 95.3054C124.579 94.9328 125.047 94.5159 125.455 94.0548C125.862 93.5937 126.235 93.1007 126.574 92.5758C126.907 92.0314 127.231 91.4674 127.549 90.8839L128.542 91.3172C128.316 92.0889 127.984 92.9662 127.547 93.949C127.11 94.9317 126.513 95.9295 125.754 96.9422C124.988 97.9354 124.019 98.8921 122.849 99.8124C121.671 100.713 120.232 101.477 118.531 102.105C116.831 102.732 115.058 103.042 113.212 103.034C111.378 103 109.609 102.598 107.904 101.828C106.199 101.058 104.626 99.8951 103.186 98.339C101.766 96.7757 100.601 94.7626 99.6926 92.2998C99.0365 90.5212 98.6592 88.8062 98.5608 87.1548C98.4624 85.5035 98.5744 83.9411 98.8968 82.4676C99.2388 80.9869 99.7522 79.6095 100.437 78.3355C101.141 77.0542 101.952 75.9113 102.869 74.9068C103.779 73.8826 104.767 73.0077 105.831 72.2819C106.908 71.5293 107.994 70.9512 109.089 70.5474C110.535 70.0138 111.853 69.7051 113.044 69.6213C114.234 69.5375 115.279 69.6296 116.177 69.8978C117.095 70.1588 117.859 70.5762 118.471 71.15C119.075 71.7044 119.518 72.3627 119.799 73.1249C120.138 74.0436 120.18 74.9716 119.927 75.9091C119.666 76.8269 119.196 77.7217 118.519 78.5935L109.458 89.6968ZM113.155 81.5712C113.352 81.3211 113.503 81.0988 113.609 80.9043C113.727 80.6831 113.799 80.4567 113.825 80.2252C113.843 79.9741 113.818 79.6948 113.749 79.3872C113.692 79.0528 113.581 78.6609 113.415 78.2113C113.234 77.7227 112.978 77.2068 112.644 76.6637C112.323 76.0938 111.938 75.5919 111.489 75.1578C111.04 74.7238 110.555 74.403 110.035 74.1954C109.514 73.9878 108.98 73.9849 108.433 74.1868C107.729 74.4464 107.202 74.8849 106.853 75.5024C106.516 76.0931 106.303 76.782 106.216 77.5692C106.149 78.3491 106.176 79.2051 106.298 80.1372C106.432 81.0426 106.609 81.9433 106.828 82.8394C107.048 83.7354 107.295 84.5878 107.572 85.3964C107.84 86.1854 108.076 86.8536 108.278 87.4008L113.155 81.5712Z" fill="#FFD66C"/>
<path d="M178.496 77.258C178.614 77.7222 178.768 78.1559 178.958 78.5591C179.162 78.9369 179.434 79.2437 179.774 79.4793C180.134 79.7097 180.569 79.8563 181.08 79.9192C181.611 79.9769 182.26 79.9076 183.027 79.7113C184.137 79.4273 185.076 78.8536 185.844 77.9904C186.607 77.1069 187.195 76.0855 187.608 74.9261C188.016 73.7465 188.244 72.4947 188.292 71.1705C188.335 69.8262 188.199 68.5385 187.884 67.3073C187.414 65.4707 186.749 63.9206 185.888 62.6571C185.042 61.3682 184.051 60.353 182.915 59.6115C181.779 58.87 180.539 58.3918 179.193 58.1769C177.843 57.9419 176.451 57.9647 175.017 58.2455L175.228 56.5466C176.126 56.3597 176.943 56.0217 177.678 55.5325C178.413 55.0434 178.993 54.3681 179.417 53.5068C179.862 52.6403 180.114 51.5651 180.173 50.2814C180.226 48.9774 180.02 47.4172 179.556 45.6008C179.24 44.3696 178.805 43.2983 178.249 42.3868C177.693 41.4753 177.078 40.7511 176.403 40.2142C175.743 39.6519 175.033 39.2743 174.274 39.0815C173.536 38.8835 172.823 38.8722 172.137 39.0478C171.713 39.1563 171.312 39.3126 170.934 39.5169C170.577 39.7159 170.278 39.9753 170.037 40.2949C169.816 40.6094 169.667 40.9918 169.588 41.4419C169.525 41.8667 169.568 42.3717 169.718 42.9571L178.496 77.258ZM168.898 37.2316C174.751 35.7338 179.285 35.552 182.5 36.6863C185.73 37.7952 187.792 40.0954 188.685 43.5871C188.907 44.4549 189.01 45.278 188.994 46.0562C188.999 46.8293 188.927 47.5573 188.779 48.2403C188.626 48.9031 188.417 49.5156 188.153 50.078C187.888 50.6403 187.598 51.1447 187.282 51.5911C186.545 52.6613 185.641 53.5809 184.569 54.3498L184.685 54.804C186.619 54.5457 188.448 54.6795 190.174 55.2055C190.898 55.4289 191.638 55.7558 192.393 56.1861C193.143 56.5963 193.856 57.1558 194.532 57.8645C195.223 58.5478 195.849 59.3983 196.411 60.4159C196.987 61.4081 197.454 62.6005 197.81 63.9932C198.352 66.1124 198.457 68.1178 198.124 70.0094C197.791 71.9011 197.02 73.636 195.811 75.2141C194.597 76.7721 192.939 78.1531 190.839 79.3573C188.739 80.5614 186.195 81.5457 183.208 82.3101C180.443 83.0176 178.148 83.422 176.325 83.523C174.501 83.6241 173.022 83.4756 171.888 83.0777C170.749 82.6596 169.879 82.0328 169.278 81.1973C168.698 80.3567 168.257 79.3511 167.958 78.1805L159.482 45.0602C159.198 43.9502 158.289 43.5914 156.755 43.9839C155.645 44.268 154.559 44.7288 153.496 45.3663C152.449 45.9784 151.536 46.696 150.757 47.5188C149.993 48.3164 149.422 49.1937 149.044 50.1508C148.66 51.0877 148.587 52.0204 148.824 52.9488C148.989 53.5947 149.202 54.0887 149.461 54.4308C149.741 54.7678 150.018 55.0088 150.292 55.1538C150.56 55.2787 150.813 55.343 151.051 55.3467C151.303 55.3251 151.48 55.3014 151.581 55.2755C152.085 55.1464 152.478 54.9598 152.76 54.7157C153.036 54.4514 153.283 54.1949 153.499 53.9461C153.709 53.6771 153.905 53.4335 154.086 53.2152C154.281 52.9716 154.531 52.8111 154.833 52.7336C155.076 52.6716 155.343 52.6676 155.637 52.7215C155.945 52.7502 156.241 52.8571 156.525 53.0425C156.829 53.2227 157.114 53.494 157.379 53.8564C157.638 54.1985 157.84 54.6522 157.985 55.2173C158.192 56.0246 158.208 56.7622 158.035 57.4302C157.882 58.093 157.605 58.6907 157.204 59.2235C156.817 59.731 156.327 60.1682 155.733 60.5353C155.154 60.8771 154.551 61.128 153.926 61.2881C152.957 61.536 152.038 61.5992 151.168 61.4777C150.313 61.3309 149.538 61.0345 148.844 60.5887C148.149 60.1428 147.56 59.5625 147.076 58.8477C146.592 58.1328 146.236 57.3314 146.009 56.4433C145.58 54.7682 145.516 53.2147 145.816 51.7831C146.111 50.3313 146.705 48.9966 147.598 47.7789C148.511 46.5561 149.687 45.4379 151.126 44.4244C152.561 43.3907 154.2 42.4443 156.045 41.5852C157.889 40.7261 159.894 39.9444 162.057 39.2402C164.236 38.5106 166.516 37.8411 168.898 37.2316Z" fill="#FFD66C"/>
<path d="M217.506 59.6844C217.625 60.3404 217.847 61.0412 218.173 61.7868C218.515 62.5083 218.941 63.2251 219.451 63.9373C219.961 64.6495 220.548 65.3161 221.211 65.9372C221.89 66.534 222.629 67.0461 223.426 67.4734C224.243 67.8971 225.113 68.195 226.033 68.3671C226.953 68.5393 227.926 68.5326 228.951 68.3471C229.668 68.2172 230.32 68.0147 230.905 67.7393C231.491 67.464 232.024 67.1346 232.505 66.7511C232.986 66.3677 233.439 65.9469 233.864 65.4889C234.286 65.0103 234.704 64.5112 235.118 63.9917L236.02 64.5905C235.663 65.3114 235.185 66.1179 234.584 67.01C233.983 67.902 233.222 68.7809 232.298 69.6467C231.372 70.4919 230.252 71.2662 228.94 71.9695C227.624 72.6523 226.074 73.1552 224.29 73.478C222.507 73.8008 220.707 73.7984 218.89 73.4709C217.09 73.1191 215.418 72.4162 213.872 71.3622C212.326 70.3081 210.979 68.89 209.831 67.1076C208.703 65.3216 207.905 63.1371 207.438 60.5541C207.1 58.6885 207.026 56.9341 207.216 55.2907C207.405 53.6474 207.786 52.1281 208.36 50.7329C208.953 49.3339 209.698 48.0665 210.593 46.9305C211.509 45.7909 212.506 44.8059 213.583 43.9757C214.657 43.125 215.782 42.4346 216.956 41.9044C218.147 41.3501 219.317 40.969 220.465 40.7612C221.982 40.4867 223.334 40.4113 224.521 40.5353C225.707 40.6592 226.72 40.9311 227.558 41.3511C228.417 41.7673 229.097 42.311 229.6 42.9822C230.099 43.6329 230.421 44.3581 230.565 45.1576C230.74 46.1211 230.621 47.0424 230.208 47.9216C229.792 48.7803 229.175 49.5801 228.356 50.3211L217.506 59.6844ZM222.557 52.3234C222.794 52.1111 222.982 51.9184 223.12 51.7452C223.274 51.5479 223.385 51.3374 223.45 51.1138C223.512 50.8698 223.535 50.5903 223.521 50.2754C223.523 49.9362 223.481 49.5309 223.396 49.0594C223.303 48.5469 223.139 47.9943 222.905 47.4015C222.688 46.7846 222.395 46.2234 222.029 45.7182C221.662 45.2129 221.24 44.8129 220.764 44.5181C220.287 44.2233 219.761 44.1278 219.187 44.2317C218.449 44.3653 217.855 44.7058 217.403 45.2533C216.969 45.7766 216.64 46.4182 216.418 47.1783C216.216 47.9347 216.094 48.7825 216.053 49.7216C216.028 50.6365 216.045 51.5542 216.106 52.4748C216.167 53.3953 216.263 54.2777 216.395 55.1219C216.523 55.9457 216.639 56.6445 216.743 57.2185L222.557 52.3234Z" fill="#FFD66C"/>
<path d="M258.215 51.6046C258.151 51.0877 257.938 50.7152 257.574 50.4872C257.21 50.2591 256.769 50.1769 256.252 50.2405C255.529 50.3296 254.856 50.5803 254.235 50.9926C253.635 51.4024 253.126 51.9583 252.709 52.6604C252.292 53.3625 251.997 54.207 251.825 55.1938C251.65 56.1599 251.639 57.2633 251.791 58.5039C251.939 59.7032 252.144 60.6855 252.406 61.4509C252.689 62.2137 253.004 62.815 253.352 63.255C253.719 63.6717 254.11 63.9489 254.525 64.0866C254.941 64.2243 255.366 64.2665 255.8 64.213C256.338 64.1468 256.828 63.95 257.27 63.6227C257.71 63.2746 258.079 62.8619 258.377 62.3844C258.675 61.9069 258.895 61.3866 259.035 60.8235C259.176 60.2604 259.213 59.7101 259.147 59.1725L258.215 51.6046ZM251.611 38.627C250.908 38.7135 250.267 38.8764 249.687 39.1157C249.108 39.3549 248.617 39.6253 248.213 39.9269C247.809 40.2285 247.503 40.5497 247.293 40.8904C247.08 41.2104 246.99 41.5048 247.024 41.7736C247.062 42.0838 247.245 42.2922 247.573 42.3987C247.919 42.482 248.3 42.5926 248.716 42.7303C249.129 42.8473 249.511 43.0522 249.862 43.3448C250.231 43.6142 250.456 44.0798 250.538 44.7415C250.591 45.1757 250.548 45.5903 250.407 45.9854C250.285 46.3573 250.087 46.7071 249.812 47.0348C249.556 47.3392 249.231 47.5996 248.838 47.8159C248.463 48.0091 248.058 48.1323 247.624 48.1858C246.466 48.3284 245.477 48.0514 244.657 47.3547C243.857 46.6556 243.377 45.6546 243.216 44.352C243.061 43.0907 243.259 41.9747 243.812 41.0041C244.361 40.0129 245.128 39.1628 246.111 38.454C247.115 37.7427 248.272 37.1699 249.583 36.7356C250.892 36.2806 252.218 35.9704 253.562 35.8049C255.175 35.6063 256.737 35.5924 258.248 35.7631C259.76 35.9339 261.121 36.333 262.331 36.9606C263.563 37.5856 264.582 38.4467 265.389 39.5438C266.216 40.6384 266.733 42.0231 266.939 43.698L269.097 61.2219C269.12 61.408 269.156 61.6135 269.204 61.8384C269.253 62.0633 269.33 62.2637 269.436 62.4396C269.541 62.6155 269.685 62.7553 269.865 62.859C270.046 62.9627 270.291 62.9955 270.602 62.9573C270.974 62.9115 271.298 62.735 271.575 62.428C271.871 62.0978 272.124 61.7727 272.337 61.4527L273.193 62.0085C272.936 62.4809 272.622 63.0023 272.252 63.5727C271.881 64.1431 271.414 64.694 270.849 65.2253C270.285 65.7565 269.608 66.2282 268.82 66.6402C268.031 67.0522 267.109 67.3231 266.054 67.4529C264.752 67.6133 263.547 67.3734 262.439 66.7331C261.329 66.0721 260.52 64.9543 260.011 63.3796C259.459 64.3502 258.858 65.1799 258.208 65.8687C257.579 66.5549 256.915 67.1299 256.217 67.5937C255.518 68.0576 254.796 68.4193 254.052 68.6789C253.328 68.936 252.583 69.1116 251.818 69.2058C250.826 69.328 249.845 69.2913 248.876 69.0958C247.908 68.9002 247.01 68.5174 246.185 67.9473C245.377 67.3541 244.679 66.5479 244.092 65.5287C243.525 64.5069 243.147 63.2207 242.956 61.6699C242.724 59.7883 242.907 58.202 243.503 56.9111C244.1 55.6201 244.948 54.4976 246.048 53.5435C247.166 52.5662 248.455 51.6939 249.914 50.9265C251.393 50.1566 252.9 49.3519 254.434 48.5123C255.575 47.8891 256.356 47.0791 256.779 46.0824C257.221 45.0626 257.38 44.0564 257.258 43.0639C257.07 41.5337 256.464 40.3698 255.443 39.572C254.439 38.751 253.162 38.436 251.611 38.627Z" fill="#FFD66C"/>
<path d="M298.823 47.229C298.808 47.0003 298.779 46.5429 298.736 45.8568C298.69 45.1499 298.619 44.3508 298.52 43.4594C298.42 42.5472 298.286 41.5851 298.117 40.5729C297.948 39.5608 297.722 38.6254 297.437 37.7667C296.897 37.154 296.3 36.618 295.644 36.1587C295.008 35.6773 294.212 35.4671 293.255 35.528C291.634 35.6313 290.506 36.7678 289.871 38.9375C289.258 41.1059 289.093 44.4148 289.376 48.8641C289.501 50.8185 289.698 52.6012 289.968 54.2123C290.258 55.8221 290.617 57.1979 291.045 58.3397C291.493 59.4802 292.019 60.3548 292.621 60.9636C293.244 61.571 293.951 61.8496 294.741 61.7992C298.067 61.5873 299.428 56.7306 298.823 47.229ZM297.575 33.5307C297.047 31.4767 296.373 29.5782 295.552 27.8352C294.73 26.0714 293.778 24.5664 292.697 23.3201C291.636 22.0725 290.448 21.1148 289.132 20.4471C287.837 19.7781 286.462 19.49 285.006 19.5827C284.175 19.6356 283.422 19.7879 282.749 20.0396C282.097 20.2898 281.531 20.5764 281.051 20.8993C280.569 21.2014 280.17 21.4981 279.855 21.7896C279.559 22.059 279.342 22.2607 279.205 22.3947L278.324 21.3548C278.782 20.6785 279.347 20.0371 280.018 19.4307C280.71 18.823 281.469 18.2945 282.297 17.8452C283.124 17.3958 283.998 17.027 284.919 16.7387C285.861 16.4491 286.8 16.2745 287.735 16.2149C290.812 16.0189 293.558 16.5224 295.973 17.7255C298.386 18.9078 300.451 20.676 302.166 23.03C303.882 25.3841 305.245 28.272 306.257 31.6938C307.268 35.1156 307.909 38.9472 308.179 43.1886C308.397 46.6191 308.236 49.6564 307.694 52.3003C307.174 54.9429 306.325 57.1889 305.149 59.0383C303.971 60.8668 302.485 62.2871 300.692 63.299C298.918 64.2887 296.877 64.8571 294.569 65.0041C292.968 65.1061 291.318 64.9294 289.619 64.474C287.94 63.9964 286.383 63.1562 284.95 61.9532C283.537 60.7489 282.338 59.1344 281.353 57.1095C280.367 55.0639 279.777 52.5234 279.584 49.4879C279.417 46.8682 279.632 44.5164 280.23 42.4325C280.849 40.3473 281.738 38.5684 282.897 37.096C284.054 35.6027 285.431 34.4399 287.027 33.6076C288.622 32.7545 290.334 32.2697 292.164 32.1531C292.87 32.1081 293.509 32.1301 294.078 32.219C294.646 32.2872 295.143 32.3913 295.569 32.5311C295.996 32.6709 296.372 32.8349 296.697 33.0229C297.021 33.1902 297.313 33.3594 297.575 33.5307Z" fill="#FFD66C"/>
<path d="M349.496 67.8802C350.329 67.9031 351.156 67.7695 351.977 67.4795C352.797 67.2103 353.529 66.7302 354.173 66.0393C354.838 65.3698 355.383 64.4782 355.81 63.3645C356.236 62.2508 356.472 60.8818 356.517 59.2574C356.565 57.5081 356.174 55.7988 355.345 54.1295C354.536 52.4608 353.498 50.8171 352.229 49.1983C350.982 47.5592 349.62 45.9378 348.142 44.3341C346.687 42.7102 345.325 41.0679 344.058 39.4075C342.812 37.7268 341.775 36.0101 340.948 34.2576C340.142 32.4848 339.765 30.6508 339.817 28.7557C339.87 26.8606 340.26 25.1623 340.989 23.661C341.74 22.1393 342.723 20.8638 343.939 19.8343C345.177 18.7846 346.595 17.99 348.194 17.4504C349.813 16.9113 351.529 16.6667 353.341 16.7166C355.278 16.7698 356.99 17.0253 358.478 17.483C359.987 17.9205 361.253 18.5076 362.275 19.2443C363.318 19.9607 364.097 20.8054 364.612 21.7782C365.128 22.7303 365.371 23.7373 365.342 24.7994C365.328 25.2993 365.241 25.8179 365.08 26.3553C364.92 26.872 364.678 27.3447 364.354 27.7734C364.029 28.2021 363.624 28.5557 363.137 28.8341C362.65 29.1125 362.083 29.2428 361.438 29.2251C360.667 29.2039 360.101 28.959 359.739 28.4906C359.398 28.0019 359.143 27.4113 358.974 26.7189C358.827 26.0271 358.702 25.2734 358.599 24.4577C358.497 23.6213 358.32 22.8557 358.068 22.161C357.816 21.4663 357.426 20.8825 356.897 20.4094C356.369 19.9156 355.584 19.6543 354.543 19.6257C353.98 19.6102 353.415 19.7197 352.846 19.9542C352.297 20.1892 351.787 20.5607 351.314 21.0687C350.863 21.5565 350.491 22.1924 350.199 22.9763C349.906 23.7602 349.745 24.6937 349.716 25.7766C349.681 27.0261 349.908 28.2516 350.396 29.4529C350.884 30.6543 351.539 31.8498 352.361 33.0395C353.183 34.2084 354.12 35.3908 355.171 36.5868C356.243 37.7626 357.325 38.9594 358.417 40.1774C359.53 41.3751 360.611 42.6136 361.66 43.8929C362.73 45.152 363.673 46.4597 364.49 47.816C365.308 49.1723 365.957 50.5865 366.437 52.0586C366.918 53.5307 367.136 55.0685 367.092 56.6721C367.027 59.0253 366.511 61.1161 365.544 62.9444C364.598 64.7524 363.327 66.2597 361.731 67.4663C360.155 68.6943 358.316 69.6129 356.215 70.222C354.114 70.8312 351.887 71.1034 349.534 71.0387C347.41 70.9803 345.533 70.6577 343.902 70.0711C342.292 69.5058 340.937 68.7703 339.836 67.8647C338.736 66.9591 337.909 65.936 337.357 64.7954C336.825 63.6762 336.576 62.5231 336.608 61.336C336.622 60.8362 336.71 60.3072 336.871 59.7489C337.053 59.1704 337.297 58.6456 337.602 58.1746C337.927 57.7043 338.324 57.3192 338.79 57.0194C339.258 56.6988 339.793 56.5468 340.397 56.5634C341.022 56.5805 341.517 56.7505 341.884 57.0732C342.271 57.3964 342.572 57.8215 342.787 58.3485C343.001 58.8754 343.172 59.4741 343.3 60.1445C343.427 60.8149 343.565 61.496 343.713 62.1879C343.86 62.8797 344.05 63.5622 344.282 64.2355C344.513 64.9088 344.84 65.5118 345.263 66.0444C345.686 66.5771 346.237 67.0091 346.916 67.3403C347.595 67.6716 348.455 67.8516 349.496 67.8802Z" fill="#FFD66C"/>
<path d="M389.421 38.9249C390.287 37.8934 391.246 36.9853 392.299 36.2005C392.726 35.8621 393.194 35.5377 393.703 35.2274C394.233 34.9189 394.779 34.6538 395.343 34.4321C395.929 34.1914 396.53 34.0148 397.147 33.9024C397.784 33.7918 398.424 33.7651 399.067 33.8223C400.458 33.946 401.679 34.3266 402.731 34.964C403.783 35.6014 404.626 36.5862 405.26 37.9185C405.894 39.2508 406.316 40.9824 406.523 43.1134C406.733 45.2236 406.7 47.8247 406.425 50.9167C406.157 53.9256 405.655 56.5163 404.918 58.6887C404.181 60.8611 403.307 62.6866 402.297 64.1655C401.287 65.6443 400.189 66.8224 399.002 67.6998C397.814 68.598 396.634 69.2774 395.464 69.738C394.294 70.1986 393.18 70.4865 392.124 70.6017C391.066 70.7376 390.163 70.7827 389.414 70.737L389.216 69.4331C390.171 69.2879 391.038 68.9364 391.82 68.3785C392.602 67.8206 393.304 66.8582 393.928 65.4914C394.553 64.1039 395.098 62.2176 395.561 59.8326C396.045 57.4495 396.456 54.3592 396.794 50.5617C397.026 47.947 397.087 45.8504 396.977 44.2719C396.889 42.6745 396.684 41.4536 396.362 40.6092C396.062 39.7459 395.674 39.1676 395.198 38.8743C394.745 38.562 394.269 38.3838 393.771 38.3394C393.17 38.2859 392.626 38.4048 392.14 38.6962C391.655 38.9669 391.218 39.294 390.829 39.6777C390.46 40.0631 390.132 40.4523 389.846 40.8452C389.581 41.2399 389.356 41.5336 389.172 41.7264L387.322 62.5192C387.298 62.789 387.227 63.1173 387.109 63.5042C386.992 63.8704 386.752 64.215 386.389 64.5383C386.048 64.8426 385.546 65.0803 384.882 65.2513C384.238 65.4449 383.365 65.4928 382.266 65.395C381.166 65.2971 380.306 65.0847 379.687 64.7577C379.066 64.4514 378.605 64.1071 378.304 63.7248C378.024 63.3443 377.86 62.9636 377.81 62.5827C377.76 62.2018 377.745 61.8972 377.766 61.669L381.338 21.5151C381.392 20.9133 381.293 20.3816 381.041 19.92C380.812 19.4394 380.365 19.1696 379.701 19.1106C379.349 19.0792 379.032 19.1137 378.751 19.2142C378.493 19.2958 378.208 19.4378 377.897 19.6403L377.341 18.8378C377.854 18.486 378.417 18.1492 379.031 17.8274C379.647 17.4848 380.311 17.1987 381.021 16.9691C381.753 16.7414 382.521 16.5692 383.326 16.4526C384.131 16.336 384.97 16.3165 385.841 16.394C387.19 16.514 388.221 16.794 388.935 17.234C389.651 17.6533 390.161 18.1484 390.466 18.7193C390.773 19.2695 390.93 19.8482 390.939 20.4555C390.97 21.044 390.966 21.5664 390.925 22.023L389.421 38.9249Z" fill="#FFD66C"/>
<path d="M417.246 52.2611C417.654 49.5626 418.402 47.2631 419.49 45.3627C420.581 43.4417 421.878 41.8994 423.381 40.736C424.905 39.5757 426.583 38.7864 428.417 38.3682C430.25 37.9499 432.114 37.884 434.009 38.1704C435.904 38.4568 437.669 39.0501 439.302 39.9502C440.939 40.8297 442.309 42.0164 443.41 43.5103C444.532 45.0073 445.334 46.814 445.815 48.9305C446.299 51.0263 446.335 53.4338 445.924 56.1529C445.516 58.8514 444.764 61.1818 443.667 63.144C442.569 65.1063 441.254 66.6985 439.721 67.9206C438.208 69.1458 436.531 69.9984 434.689 70.4785C432.849 70.9379 430.982 71.0245 429.087 70.738C427.192 70.4516 425.43 69.8378 423.803 68.8965C422.178 67.9346 420.809 66.6742 419.697 65.1154C418.604 63.5597 417.821 61.703 417.346 59.5454C416.872 57.3877 416.838 54.9597 417.246 52.2611ZM436.296 54.8242C436.545 53.1762 436.723 51.5807 436.83 50.0377C436.96 48.4772 436.951 47.0746 436.802 45.83C436.653 44.5855 436.322 43.5663 435.81 42.7725C435.301 41.9581 434.542 41.4747 433.533 41.3221C432.523 41.1696 431.652 41.4277 430.919 42.0964C430.189 42.7446 429.565 43.6618 429.049 44.8479C428.536 46.0135 428.109 47.3713 427.77 48.9212C427.43 50.4712 427.136 52.0702 426.887 53.7182C426.638 55.3661 426.445 56.9909 426.308 58.5927C426.174 60.1738 426.179 61.6072 426.322 62.893C426.465 64.1788 426.787 65.2495 427.29 66.105C427.796 66.94 428.554 67.4338 429.563 67.5863C430.573 67.7389 431.445 67.4705 432.182 66.7811C432.918 66.0917 433.547 65.1334 434.07 63.906C434.593 62.6787 435.027 61.2694 435.373 59.6782C435.739 58.0901 436.047 56.4721 436.296 54.8242Z" fill="#FFD66C"/>
<path d="M459.946 48.08C460.073 47.4893 460.04 46.9494 459.846 46.4605C459.678 45.9556 459.267 45.6332 458.616 45.4934C458.269 45.4191 457.961 45.4169 457.69 45.4867C457.419 45.5565 457.118 45.6729 456.784 45.8358L456.306 44.9343C456.858 44.6477 457.458 44.3823 458.107 44.1379C458.781 43.8776 459.485 43.6769 460.218 43.5359C460.951 43.3949 461.725 43.3157 462.538 43.2984C463.351 43.281 464.186 43.3641 465.041 43.5476C465.958 43.7442 466.712 44.055 467.302 44.4799C467.893 44.9049 468.359 45.367 468.699 45.8661C469.064 46.3492 469.311 46.8389 469.439 47.3351C469.571 47.8109 469.625 48.206 469.6 48.5203C470.13 48.0373 470.72 47.6205 471.37 47.2699C472.041 46.9237 472.737 46.6576 473.459 46.4715C474.206 46.2693 474.965 46.1552 475.738 46.1292C476.531 46.1075 477.325 46.1818 478.119 46.3522C479.749 46.7017 481.153 47.3545 482.333 48.3106C483.513 49.2668 484.43 50.5074 485.083 52.0324C485.756 53.5618 486.138 55.3589 486.228 57.4236C486.318 59.4884 486.087 61.8041 485.537 64.3707C484.899 67.3448 484.04 69.8131 482.958 71.7758C481.901 73.7225 480.722 75.2487 479.419 76.3543C478.137 77.4643 476.779 78.1851 475.344 78.5166C473.934 78.8321 472.557 78.8457 471.212 78.5574C470.092 78.3171 469.128 77.9932 468.321 77.5857C467.534 77.1825 466.869 76.7524 466.328 76.2955C465.787 75.8385 465.348 75.4033 465.01 74.99C464.677 74.5564 464.412 74.2013 464.216 73.9248L461.018 88.8358C460.961 89.1006 460.853 89.4076 460.693 89.7568C460.533 90.106 460.255 90.4086 459.859 90.6646C459.479 90.9454 458.947 91.1403 458.263 91.2493C457.6 91.3627 456.728 91.3036 455.648 91.0721C454.569 90.8405 453.742 90.5246 453.167 90.1244C452.608 89.7489 452.205 89.3429 451.958 88.9063C451.706 88.4901 451.579 88.09 451.576 87.7058C451.569 87.3421 451.59 87.0481 451.638 86.8241L459.946 48.08ZM465.153 69.5554C465.118 69.7184 465.128 70.0188 465.183 70.4568C465.238 70.8948 465.373 71.3604 465.587 71.8537C465.801 72.3471 466.105 72.8171 466.499 73.2639C466.918 73.6946 467.474 73.9843 468.166 74.1328C469.063 74.325 469.899 74.1527 470.674 73.6159C471.454 73.0588 472.172 72.2433 472.829 71.1696C473.49 70.0755 474.078 68.774 474.593 67.2652C475.113 65.736 475.563 64.0853 475.943 62.3131C476.41 60.1335 476.683 58.2638 476.762 56.704C476.861 55.1486 476.785 53.8644 476.533 52.8517C476.286 51.8185 475.891 51.0306 475.346 50.4877C474.827 49.9289 474.18 49.5665 473.406 49.4005C472.958 49.3044 472.482 49.3407 471.977 49.5094C471.476 49.6577 471.001 49.8861 470.551 50.1945C470.126 50.4869 469.752 50.8433 469.427 51.2638C469.103 51.6842 468.894 52.1084 468.803 52.5361L465.153 69.5554Z" fill="#FFD66C"/>
<path d="M525.128 67.2077L530.523 69.0075L536.15 52.1401C536.295 51.7053 536.361 51.343 536.348 51.0531C536.335 50.7632 536.262 50.5195 536.131 50.3218C536.006 50.1044 535.821 49.933 535.577 49.8078C535.36 49.6694 535.103 49.5507 534.807 49.4518C534.372 49.3068 533.805 49.1947 533.107 49.1155C532.428 49.0428 531.687 49.0262 530.884 49.0655C530.08 49.1048 529.243 49.2101 528.373 49.3811C527.53 49.539 526.736 49.7793 525.992 50.102C525.267 50.4312 524.621 50.8527 524.054 51.3664C523.488 51.8801 523.082 52.5026 522.839 53.2338C522.628 53.8662 522.538 54.3966 522.571 54.8248C522.624 55.2596 522.726 55.6121 522.877 55.8823C523.035 56.1326 523.213 56.3237 523.411 56.4555C523.635 56.5742 523.796 56.65 523.895 56.683C524.389 56.8478 524.821 56.9039 525.19 56.8513C525.565 56.7789 525.911 56.6966 526.227 56.6045C526.55 56.4925 526.847 56.3938 527.117 56.3082C527.413 56.2095 527.71 56.2095 528.006 56.3084C528.243 56.3875 528.471 56.5292 528.688 56.7335C528.932 56.9246 529.123 57.175 529.261 57.4847C529.419 57.801 529.511 58.1831 529.537 58.6311C529.57 59.0593 529.494 59.5501 529.31 60.1035C529.046 60.894 528.66 61.523 528.153 61.9907C527.665 62.4649 527.109 62.8172 526.483 63.0477C525.883 63.2649 525.234 63.3669 524.536 63.3535C523.864 63.327 523.222 63.2116 522.609 63.0072C521.66 62.6907 520.853 62.2459 520.188 61.6725C519.549 61.086 519.059 60.4172 518.716 59.6661C518.374 58.915 518.193 58.1079 518.173 57.2449C518.154 56.3818 518.289 55.5155 518.579 54.646C519.034 53.2823 519.696 52.1197 520.566 51.1581C521.443 50.1766 522.457 49.3731 523.61 48.7475C524.783 48.1285 526.055 47.6743 527.425 47.3847C528.822 47.082 530.268 46.9275 531.764 46.9213C533.259 46.9151 534.774 47.0472 536.309 47.3177C537.851 47.5684 539.353 47.9377 540.815 48.4255C542.436 48.9662 543.638 49.5429 544.422 50.1558C545.232 50.7555 545.772 51.342 546.042 51.9152C546.332 52.495 546.437 53.0352 546.358 53.5359C546.279 54.0366 546.186 54.445 546.081 54.7612L540.246 72.2512L551.155 75.8904L555.912 61.6317C557 58.3708 558.351 55.7359 559.966 53.7269C561.58 51.718 563.3 50.2163 565.125 49.2219C566.957 48.2078 568.811 47.6515 570.689 47.5532C572.573 47.435 574.336 47.6496 575.976 48.1968C577.102 48.5726 578.14 49.0175 579.088 49.5316C580.063 50.0325 580.87 50.5762 581.509 51.1627C582.168 51.7558 582.639 52.3851 582.922 53.0506C583.212 53.6963 583.244 54.3551 583.02 55.027C582.921 55.3234 582.776 55.5935 582.585 55.8372C582.42 56.0678 582.223 56.2654 581.992 56.43C581.761 56.5947 581.514 56.7099 581.251 56.7757C581.014 56.8284 580.786 56.8184 580.569 56.7459C580.213 56.6272 579.933 56.4131 579.729 56.1034C579.525 55.7937 579.347 55.4379 579.196 55.036C579.071 54.6209 578.952 54.1861 578.84 53.7314C578.735 53.2571 578.587 52.8124 578.396 52.3973C578.212 51.9624 577.968 51.5736 577.665 51.231C577.362 50.8883 576.954 50.6313 576.44 50.4599C575.234 50.0577 574.164 50.0739 573.228 50.5085C572.299 50.9234 571.433 51.7104 570.629 52.8697C569.831 54.0093 569.057 55.5079 568.305 57.3656C567.573 59.2298 566.799 61.3872 565.981 63.8378L560.878 79.1341L566.837 81.1218L565.967 83.7305L560.008 81.7428L553.996 99.7663C553.804 100.339 553.768 100.843 553.887 101.278C554.031 101.7 554.361 101.996 554.875 102.168C555.428 102.352 555.975 102.425 556.515 102.386C557.055 102.346 557.533 102.297 557.948 102.238L558.086 103.503C557.552 103.654 556.936 103.789 556.238 103.907C555.553 104.052 554.808 104.144 554.004 104.184C553.214 104.249 552.384 104.236 551.514 104.143C550.658 104.077 549.795 103.899 548.925 103.609C547.581 103.161 546.554 102.62 545.842 101.988C545.131 101.355 544.647 100.667 544.39 99.9221C544.127 99.1974 544.038 98.443 544.124 97.6591C544.229 96.8817 544.408 96.1175 544.658 95.3665L550.285 78.4991L539.376 74.8599L534.451 89.6226C533.555 92.3103 532.279 94.4874 530.625 96.1537C528.991 97.8267 527.103 99.0418 524.962 99.7989C522.814 100.576 520.475 100.905 517.945 100.785C515.429 100.693 512.856 100.208 510.228 99.3309C509.22 98.9947 508.281 98.5827 507.412 98.095C506.536 97.627 505.791 97.1261 505.179 96.5924C504.566 96.0586 504.122 95.515 503.845 94.9615C503.542 94.4212 503.47 93.9139 503.628 93.4396C503.747 93.0839 503.918 92.7347 504.142 92.3922C504.36 92.0694 504.617 91.7928 504.913 91.5623C505.21 91.3318 505.539 91.1672 505.901 91.0684C506.244 90.9631 506.593 90.9698 506.949 91.0884C507.166 91.161 507.318 91.3323 507.403 91.6024C507.509 91.8791 507.598 92.2053 507.67 92.5808C507.736 92.9761 507.815 93.3978 507.907 93.8458C508.019 94.3004 508.2 94.7451 508.45 95.18C508.713 95.6412 509.066 96.0662 509.507 96.455C509.948 96.8438 510.554 97.1668 511.325 97.4239C512.847 97.9316 514.244 98.09 515.515 97.8993C516.806 97.7151 517.976 97.2378 519.024 96.4672C520.071 95.6966 520.997 94.6658 521.801 93.3748C522.618 92.11 523.304 90.6477 523.858 88.9876L529.653 71.6162L524.258 69.8164L525.128 67.2077Z" fill="#FFD66C"/>
<path d="M586.344 115.978C584.734 115.291 583.69 114.448 583.21 113.45C582.73 112.452 582.805 111.216 583.435 109.74L599.024 73.2426C598.386 73.0382 597.571 72.8259 596.577 72.6055C595.611 72.3742 594.565 72.199 593.438 72.08C592.31 71.961 591.155 71.9091 589.97 71.9243C588.794 71.9202 587.69 72.0378 586.659 72.2771C585.636 72.4972 584.725 72.8553 583.924 73.3514C583.123 73.8475 582.538 74.5267 582.17 75.3888C581.908 76.0019 581.776 76.5232 581.774 76.9527C581.791 77.3903 581.864 77.75 581.993 78.0316C582.13 78.294 582.291 78.499 582.478 78.6465C582.691 78.783 582.846 78.8717 582.942 78.9126C583.421 79.1172 583.846 79.2083 584.218 79.186C584.598 79.1445 584.95 79.0907 585.272 79.0247C585.603 78.9395 585.907 78.8652 586.183 78.802C586.487 78.7277 586.782 78.752 587.069 78.8747C587.299 78.9729 587.514 79.1327 587.714 79.354C587.942 79.5644 588.111 79.8295 588.224 80.1495C588.356 80.4776 588.416 80.8659 588.406 81.3146C588.404 81.7441 588.288 82.227 588.059 82.7635C587.732 83.5298 587.296 84.1254 586.752 84.55C586.228 84.9829 585.644 85.2886 585.001 85.4672C584.386 85.6349 583.731 85.6835 583.036 85.6133C582.368 85.532 581.738 85.3645 581.144 85.1109C580.224 84.7181 579.456 84.2088 578.84 83.5832C578.251 82.9465 577.816 82.2399 577.536 81.4633C577.256 80.6868 577.142 79.8676 577.193 79.0059C577.244 78.1441 577.449 77.2917 577.809 76.4487C578.767 74.2071 580.206 72.5339 582.128 71.4292C584.077 70.3134 586.354 69.6773 588.958 69.5209C591.57 69.3454 594.414 69.6086 597.49 70.3106C600.565 71.0126 603.732 72.0592 606.989 73.4503C608.54 74.1132 610.046 74.7788 611.505 75.4472C612.972 76.0965 614.296 76.7076 615.479 77.2806C616.681 77.8618 617.706 78.379 618.554 78.832C619.403 79.2851 620.008 79.6454 620.369 79.9131C620.711 80.1725 620.957 80.4471 621.105 80.7369C621.261 81.0076 621.348 81.2824 621.364 81.5614C621.381 81.8404 621.351 82.1222 621.275 82.4068C621.207 82.6722 621.116 82.939 621.001 83.2073C620.911 83.418 620.776 83.6548 620.596 83.9176C620.424 84.1613 620.227 84.3831 620.006 84.5831C619.784 84.7831 619.551 84.9324 619.305 85.0312C619.058 85.13 618.811 85.1262 618.562 85.0198C618.409 84.9544 618.274 84.8177 618.159 84.61C618.063 84.4104 617.912 84.1535 617.707 83.8391C617.501 83.5248 617.203 83.1367 616.811 82.6749C616.438 82.2212 615.895 81.7172 615.18 81.1627C614.485 80.6165 613.589 80.0076 612.494 79.336C611.418 78.6725 610.069 77.9602 608.446 77.199L592.832 113.754C592.202 115.229 591.361 116.139 590.308 116.482C589.255 116.825 587.934 116.657 586.344 115.978Z" fill="#FFD66C"/>
<path d="M639.156 105.564C640.59 103.911 642.05 102.436 643.536 101.138C645.041 99.8499 646.547 98.8317 648.055 98.0838C649.573 97.3174 651.092 96.8911 652.611 96.8048C654.149 96.7281 655.669 97.0752 657.17 97.8459C658.116 98.3312 658.953 98.8666 659.683 99.4521C660.422 100.019 661.036 100.603 661.523 101.205C662.01 101.806 662.349 102.402 662.538 102.991C662.737 103.561 662.745 104.092 662.563 104.584C662.41 104.927 662.216 105.261 661.979 105.584C661.752 105.889 661.493 106.143 661.202 106.345C660.911 106.547 660.589 106.674 660.234 106.726C659.907 106.769 659.577 106.705 659.244 106.533C659.04 106.429 658.916 106.236 658.873 105.956C658.829 105.676 658.8 105.345 658.785 104.963C658.789 104.59 658.77 104.171 658.729 103.705C658.715 103.229 658.618 102.758 658.437 102.29C658.274 101.832 658.004 101.377 657.627 100.926C657.249 100.474 656.709 100.068 656.004 99.7063C654.892 99.1353 653.668 99.0803 652.33 99.5412C651.003 99.9835 649.606 100.789 648.14 101.956C646.692 103.133 645.2 104.58 643.663 106.297C642.154 108.004 640.639 109.838 639.118 111.797L639.095 134.829C639.085 135.761 639.198 136.522 639.434 137.111C639.688 137.71 640.112 138.162 640.705 138.466C641.298 138.771 641.884 138.908 642.462 138.877C643.058 138.855 643.604 138.796 644.099 138.698L644.366 139.889C643.777 140.079 643.085 140.239 642.292 140.37C641.527 140.492 640.701 140.549 639.816 140.539C638.941 140.511 638.038 140.399 637.109 140.203C636.197 140.016 635.297 139.694 634.407 139.238C633.518 138.781 632.736 138.274 632.062 137.717C631.388 137.16 630.812 136.478 630.337 135.672C629.87 134.847 629.517 133.87 629.278 132.74C629.038 131.61 628.909 130.243 628.888 128.64L628.9 118.424C627.372 120.169 625.808 121.731 624.21 123.112C622.62 124.474 621.016 125.547 619.395 126.331C617.794 127.124 616.181 127.573 614.559 127.677C612.946 127.762 611.361 127.405 609.805 126.605C608.86 126.12 607.985 125.566 607.181 124.942C606.386 124.347 605.708 123.729 605.146 123.089C604.603 122.459 604.205 121.845 603.95 121.246C603.705 120.628 603.669 120.083 603.842 119.609C603.976 119.257 604.166 118.933 604.411 118.637C604.648 118.314 604.911 118.051 605.202 117.849C605.493 117.647 605.807 117.515 606.143 117.454C606.479 117.392 606.814 117.447 607.148 117.618C607.351 117.723 607.484 117.92 607.547 118.209C607.627 118.509 607.689 118.868 607.731 119.288C607.782 119.689 607.847 120.132 607.926 120.617C608.005 121.103 608.149 121.598 608.357 122.104C608.576 122.59 608.883 123.064 609.279 123.525C609.693 123.995 610.252 124.411 610.956 124.773C612.087 125.353 613.358 125.409 614.77 124.939C616.21 124.461 617.71 123.615 619.27 122.402C620.829 121.189 622.425 119.678 624.056 117.869C625.706 116.07 627.324 114.149 628.912 112.107L628.978 90.2208C628.997 89.2706 628.885 88.51 628.639 87.939C628.403 87.3495 627.989 86.9025 627.396 86.598C626.802 86.2935 626.208 86.152 625.611 86.1736C625.024 86.1766 624.488 86.2408 624.002 86.366L623.749 85.1474C624.338 84.958 625.015 84.8022 625.781 84.6799C626.565 84.5672 627.39 84.5108 628.256 84.5108C629.141 84.5202 630.049 84.6231 630.978 84.8194C631.908 85.0157 632.818 85.3422 633.707 85.799C634.597 86.2557 635.379 86.7626 636.053 87.3195C636.727 87.8765 637.288 88.5627 637.736 89.3781C638.212 90.1845 638.57 91.1527 638.809 92.2826C639.067 93.4221 639.197 94.7885 639.199 96.3818L639.156 105.564Z" fill="#FFD66C"/>
</svg>
